<svg width="938.0000000000001" height="618" xmlns="http://www.w3.org/2000/svg" xmlns:xlink="http://www.w3.org/1999/xlink" xmlns:undefined="http://www.inkscape.org/namespaces/inkscape">
 <defs>
  <linearGradient id="imagebot_172">
   <stop stop-color="#323639" id="imagebot_191" offset="0"/>
   <stop stop-color="#323639" stop-opacity="0" id="imagebot_190" offset="1"/>
  </linearGradient>
  <linearGradient id="imagebot_173">
   <stop stop-color="#8e959d" id="imagebot_189" offset="0"/>
   <stop stop-color="#8e959d" stop-opacity="0" id="imagebot_188" offset="1"/>
  </linearGradient>
  <linearGradient id="imagebot_162">
   <stop stop-color="#1a1a1a" id="imagebot_187" offset="0"/>
   <stop stop-color="#1a1a1a" stop-opacity="0" id="imagebot_186" offset="1"/>
  </linearGradient>
  <linearGradient id="imagebot_163">
   <stop stop-color="#63747c" id="imagebot_185" offset="0"/>
   <stop stop-color="#63747c" stop-opacity="0" id="imagebot_184" offset="1"/>
  </linearGradient>
  <linearGradient id="imagebot_167">
   <stop stop-color="#d3d3d3" id="imagebot_183" offset="0"/>
   <stop stop-color="#f0f1f3" offset="0.28374" id="imagebot_182"/>
   <stop stop-color="#f8f8f9" id="imagebot_181" offset="0.59552"/>
   <stop stop-color="#c1c4cd" id="imagebot_180" offset="1"/>
  </linearGradient>
  <linearGradient spreadMethod="pad" y2="0.06609" x2="0.57197" y1="0.91388" x1="0.57602" id="imagebot_136" xlink:href="#imagebot_167"/>
  <linearGradient y2="0.19914" x2="0.66766" y1="0.38139" x1="0.69543" id="imagebot_104" xlink:href="#imagebot_167"/>
  <linearGradient y2="0.44758" x2="0.16733" y1="0.625" x1="0.81629" id="imagebot_134" xlink:href="#imagebot_167"/>
  <linearGradient y2="0.49997" x2="1.01126" y1="0.49997" x1="-0.0113" id="imagebot_119" xlink:href="#imagebot_163"/>
  <linearGradient y2="0.49997" x2="1.01126" y1="0.49997" x1="-0.0113" id="imagebot_120" xlink:href="#imagebot_162"/>
  <linearGradient y2="0.06492" x2="3.19549" y1="0.06492" x1="-1.7041" id="imagebot_116" xlink:href="#imagebot_163"/>
  <linearGradient y2="0.06492" x2="3.19549" y1="0.06492" x1="-1.7041" id="imagebot_117" xlink:href="#imagebot_162"/>
  <linearGradient y2="1.02525" x2="1.33272" y1="1.02525" x1="-3.21977" id="imagebot_113" xlink:href="#imagebot_163"/>
  <linearGradient y2="1.02525" x2="1.33272" y1="1.02525" x1="-3.21977" id="imagebot_114" xlink:href="#imagebot_162"/>
  <linearGradient y2="-0.06082" x2="0.77562" y1="0.26753" x1="0.81241" id="imagebot_88" xlink:href="#imagebot_173"/>
  <linearGradient y2="0.56431" x2="0.45773" y1="0.61254" x1="0.76759" id="imagebot_132" xlink:href="#imagebot_173"/>
  <linearGradient y2="0.50001" x2="1.00201" y1="0.50001" x1="-0.00201" id="imagebot_122" xlink:href="#imagebot_167"/>
  <linearGradient y2="0.50647" x2="1.10188" y1="0.50647" x1="-0.00275" id="imagebot_130" xlink:href="#imagebot_167"/>
  <linearGradient y2="0.50819" x2="1.0015" y1="0.50819" x1="-0.00961" id="imagebot_128" xlink:href="#imagebot_167"/>
  <filter color-interpolation-filters="sRGB" id="imagebot_138">
   <feGaussianBlur id="imagebot_174" stdDeviation="2.29202" />
  </filter>
  <linearGradient y2="0.49999" x2="1.02007" y1="0.49999" x1="-0.01993" id="imagebot_124" xlink:href="#imagebot_173"/>
  <linearGradient y2="0.49998" x2="0.99999" y1="0.49998" x1="0.00001" id="imagebot_108" xlink:href="#imagebot_173"/>
  <linearGradient y2="0.49999" x2="1.08096" y1="0.49999" x1="-0.08098" id="imagebot_95" xlink:href="#imagebot_172"/>
  <linearGradient y2="0.5" x2="1.00429" y1="0.5" x1="-0.00431" id="imagebot_101" xlink:href="#imagebot_167"/>
  <linearGradient y2="0.4999" x2="0.99998" y1="0.4999" x1="0.00003" id="imagebot_91" xlink:href="#imagebot_167"/>
  <linearGradient y2="0.5" x2="1.00427" y1="0.5" x1="-0.00429" id="imagebot_152" xlink:href="#imagebot_167"/>
  <linearGradient y2="0.49999" x2="1.08096" y1="0.49999" x1="-0.08098" id="imagebot_146" xlink:href="#imagebot_172"/>
  <linearGradient y2="0.50006" x2="1.00002" y1="0.50006" x1="0.00001" id="imagebot_143" xlink:href="#imagebot_167"/>
  <filter color-interpolation-filters="sRGB" id="imagebot_140">
   <feGaussianBlur id="imagebot_171" stdDeviation="2.02419" />
  </filter>
  <filter color-interpolation-filters="sRGB" id="imagebot_155">
   <feGaussianBlur id="imagebot_170" stdDeviation="1.00413" />
  </filter>
  <filter color-interpolation-filters="sRGB" id="imagebot_157">
   <feGaussianBlur id="imagebot_169" stdDeviation="0.60863" />
  </filter>
  <filter color-interpolation-filters="sRGB" id="imagebot_86">
   <feGaussianBlur id="imagebot_168" stdDeviation="0.44758" />
  </filter>
  <linearGradient y2="0.95762" x2="0.54713" y1="0.11866" x1="0.07785" id="imagebot_85" xlink:href="#imagebot_167"/>
  <linearGradient y2="0.69787" x2="0.83986" y1="0.02502" x1="0.02723" id="imagebot_83" xlink:href="#imagebot_167"/>
  <filter color-interpolation-filters="sRGB" id="imagebot_106">
   <feGaussianBlur id="imagebot_166" stdDeviation="1.14991" />
  </filter>
  <filter color-interpolation-filters="sRGB" id="imagebot_160">
   <feGaussianBlur id="imagebot_165" stdDeviation="1.28974" />
  </filter>
  <filter color-interpolation-filters="sRGB" id="imagebot_126">
   <feGaussianBlur id="imagebot_164" stdDeviation="2.03226" />
  </filter>
  <linearGradient y2="0.49997" x2="1.01126" y1="0.49997" x1="-0.0113" id="imagebot_110" xlink:href="#imagebot_163"/>
  <linearGradient y2="0.49997" x2="1.01126" y1="0.49997" x1="-0.0113" id="imagebot_111" xlink:href="#imagebot_162"/>
 </defs>
 <metadata id="imagebot_161">image/svg+xml</metadata>
 <g display="inline" id="imagebot_2" label="Layer 1">
  <g display="inline" label="Layer 1" transform="translate(-0) matrix(1, 0, 0, 1, 417.123, -940.216)" id="imagebot_3">
   <path fill="#000000" filter="url(#imagebot_160)" id="imagebot_159" d="M-245.30392,1298.2417L-392.07811,1372.4353L-376.75553,1373.2417L-322.72327,1353.8869L-272.72327,1334.532L-213.8523,1308.7256C-213.8523,1308.7256 -207.42161,1306.4742 -211.43295,1300.6611C-215.44429,1294.848 -245.30392,1298.2417 -245.30392,1298.2417z"/>
   <path fill="#000000" stroke="#000000" stroke-width="1px" filter="url(#imagebot_86)" d="M298.66382,986.95142L288.17995,941.79013L330.11543,989.37077L298.66382,986.95142z" id="imagebot_158"/>
   <path fill="#000000" filter="url(#imagebot_157)" id="imagebot_156" d="M-161.0136,1256.30615C-161.0136,1256.30615 -156.29097,1236.95975 -154.56199,1228.08035C-152.83301,1219.20095 -150.51226,1209.75355 -150.52973,1203.08035C-150.54723,1196.40715 -148.58768,1192.41125 -152.94909,1188.56425C-157.3105,1184.71725 -173.11037,1187.75775 -173.11037,1187.75775L-202.14264,1241.79005L-161.0136,1256.30615z"/>
   <path fill="#000000" filter="url(#imagebot_155)" d="M357.99362,1184.00842C353.5208,1183.98642 348.84787,1184.36282 342.02487,1185.22722C340.48878,1185.22722 338.97764,1185.44882 337.52487,1185.88342C332.25373,1186.76362 325.82989,1188.18512 319.74362,1189.75842L285.64987,1189.22722L283.08737,1194.10222L289.93112,1205.47722L292.55612,1203.78962C291.17053,1205.85842 290.11479,1208.14292 289.21237,1210.72722C288.73408,1212.09682 288.37203,1213.50712 288.08737,1214.91462L277.74362,1218.85222L287.27487,1225.22722C287.30877,1226.73232 287.38484,1228.22822 287.49362,1229.66462C288.45471,1237.62582 289.9602,1242.17552 297.99362,1248.19592C306.02704,1254.21632 323.02959,1255.72062 335.89987,1257.07092C348.77015,1258.42122 365.04585,1257.97842 374.61862,1256.25842C384.19139,1254.53842 386.18518,1255.69122 393.14987,1249.82092C400.11456,1243.95062 405.16533,1230.52432 404.68112,1218.88342C404.19691,1207.24252 398.92668,1195.80432 390.74362,1190.13342C382.56056,1184.46252 374.79401,1185.32552 366.52487,1184.50842C363.42394,1184.20202 360.74565,1184.02212 357.99362,1184.00842z" id="imagebot_154"/>
   <g id="imagebot_141" transform="translate(-115.18997,67.289194)">
    <path fill="#000000" d="M403.4357,1146.14771L389.20817,1151.57341L405.58426,1162.51781L403.4357,1146.14771z" id="imagebot_153"/>
    <path fill="url(#imagebot_152)" d="M398.98157,1162.3689C399.94266,1170.3301 401.43202,1174.8969 409.46544,1180.9173C417.49886,1186.9377 434.49838,1188.438 447.36866,1189.7883C460.23894,1191.1386 476.50557,1190.7018 486.07834,1188.9818C495.65111,1187.2618 497.66204,1188.4005 504.62673,1182.5302C511.59142,1176.6599 516.62907,1163.2408 516.14486,1151.5999C515.66065,1139.959 510.39043,1128.5237 502.20737,1122.8528C494.02431,1117.1819 486.28296,1118.0247 478.01382,1117.2076C469.74468,1116.3905 464.39356,1116.5558 453.01382,1118.0141C441.63408,1119.4724 420.1707,1124.7312 413.12313,1128.5469C406.07556,1132.3626 402.93151,1137.0075 400.68328,1143.4457C398.51681,1149.6498 398.52836,1156.384 398.98157,1162.3689z" id="imagebot_151"/>
    <path fill="none" stroke="#6e7a8a" stroke-width="6.5576" stroke-miterlimit="4" id="imagebot_150" d="M211.27666,611.52686C211.27666,629.61701 202.21321,644.28197 191.03288,644.28197C179.85255,644.28197 170.7891,629.617 170.7891,611.52686C170.7891,593.4367 179.85255,578.77172 191.03288,578.77172C202.21321,578.77172 211.27666,593.4367 211.27666,611.52686z" transform="matrix(1.0431446,0,0,0.9342594,294.27422,581.76168)"/>
    <path fill="none" stroke="#e6e6e6" stroke-width="1.65444" stroke-linecap="round" stroke-linejoin="round" stroke-miterlimit="4" id="imagebot_149" d="M150.11763,641.49896C137.28387,641.49897 126.88005,626.62725 126.88005,608.28205C126.88005,589.93686 137.28387,575.06514 150.11763,575.06514C150.11763,575.06514 150.11763,575.06514 150.11763,575.06514" transform="matrix(0.99978325,0,0,1.0685179,303.40416,503.47831)"/>
    <path fill="#323639" stroke="#323639" stroke-width="6.5576" stroke-miterlimit="4" transform="matrix(0.45764369,0,0,0.68167928,397.14276,736.49087)" d="M211.27666,611.52686C211.27666,629.61701 202.21321,644.28197 191.03288,644.28197C179.85255,644.28197 170.7891,629.617 170.7891,611.52686C170.7891,593.4367 179.85255,578.77172 191.03288,578.77172C202.21321,578.77172 211.27666,593.4367 211.27666,611.52686z" id="imagebot_148"/>
    <path fill="none" stroke="#e6e6e6" stroke-width="1.65444" stroke-linecap="round" stroke-linejoin="round" stroke-miterlimit="4" transform="matrix(0.99978325,0,0,1.0685179,325.35869,503.47831)" d="M150.11763,641.49896C137.28387,641.49897 126.88005,626.62725 126.88005,608.28205C126.88005,589.93686 137.28387,575.06514 150.11763,575.06514C150.11763,575.06514 150.11763,575.06514 150.11763,575.06514" id="imagebot_147"/>
    <path fill="url(#imagebot_146)" id="imagebot_145" d="M211.27666,611.52686C211.27666,629.61701 202.21321,644.28197 191.03288,644.28197C179.85255,644.28197 170.7891,629.617 170.7891,611.52686C170.7891,593.4367 179.85255,578.77172 191.03288,578.77172C202.21321,578.77172 211.27666,593.4367 211.27666,611.52686z" transform="matrix(-0.90331164,0,0,0.87718196,665.755,616.48907)"/>
    <path fill="#999999" d="M474.44583,1146.453L484.14004,1152.1555L473.87558,1157.2877L474.44583,1146.453z" id="imagebot_144"/>
    <path fill="url(#imagebot_143)" stroke="#cccccc" d="M397.13678,1121.95496L453.8764,1122.81036L431.92187,1125.94676L414.2442,1129.93846L401.41364,1138.20706L394.57067,1126.80216L397.13678,1121.95496z" id="imagebot_142"/>
   </g>
   <path fill="#000000" filter="url(#imagebot_140)" id="imagebot_139" d="M181.72833,1243.40295C181.72833,1243.40295 198.60393,1221.58405 209.95414,1201.46745C221.30435,1181.35095 235.22251,1148.38145 247.05091,1121.62875C258.87931,1094.87605 272.67162,1063.53755 280.92188,1040.98365C289.17214,1018.42965 297.85736,986.95134 297.85736,986.95134L314.79285,986.14489L329.30898,988.56424C329.30898,988.56424 324.47499,1033.59145 322.05091,1054.69325C319.62683,1075.79515 317.51264,1096.35895 314.79285,1115.17715C312.07306,1133.99535 309.17142,1151.06295 305.92189,1167.59655C302.67234,1184.13005 298.28963,1202.14575 295.43802,1214.37065C292.58641,1226.59555 288.98641,1240.98365 288.98641,1240.98365L181.72833,1243.40295z"/>
   <path fill="#1a1a1a" filter="url(#imagebot_138)" id="imagebot_137" d="M-131.17488,1261.95142L183.34126,1245.01592L292.21222,1238.56432L389.79287,1235.33852C389.79287,1235.33852 414.69936,1235.17372 426.88964,1237.35462C442.12286,1240.08002 456.89354,1245.27392 471.24448,1251.06432C478.99278,1254.19072 486.43906,1258.08922 493.62352,1262.35462C499.52234,1265.85682 505.78551,1269.12122 510.559,1274.04822C514.78762,1278.41272 519.94113,1283.63372 520.43804,1289.37072C520.93494,1295.10772 516.50638,1299.56792 511.76868,1305.09662C507.03097,1310.62522 498.51599,1315.66542 491.00254,1319.81432C483.4891,1323.96322 467.21222,1329.69332 467.21222,1329.69332C467.21222,1329.69332 445.05388,1336.32792 435.76061,1338.56432C426.46734,1340.80072 423.91938,1341.67572 411.56706,1343.40302C399.21474,1345.13032 380.66033,1346.54712 361.56706,1347.43532C336.30693,1348.76802 348.68702,1346.86492 285.76061,1349.04822C222.8342,1351.23152 -4.96138,1362.63702 -15.85231,1361.95142C-26.74321,1361.26582 -41.16849,1360.41482 -56.77972,1357.91912C-72.39096,1355.42352 -129.50954,1340.85482 -151.5378,1335.13692C-173.56605,1329.41902 -171.8617,1329.77952 -190.04586,1324.24982C-208.23001,1318.72012 -253.22287,1301.87812 -258.39263,1299.65302C-263.56239,1297.42792 -269.54225,1294.94202 -269.68295,1289.57242C-269.82365,1284.20272 -264.70641,1282.95412 -256.77973,1280.09662C-248.85306,1277.23902 -131.17488,1261.95142 -131.17488,1261.95142z"/>
   <path fill="url(#imagebot_136)" d="M-131.17488,1261.95142L183.34126,1245.01592L292.21222,1238.56432L389.79287,1235.33852C389.79287,1235.33852 414.69936,1235.17372 426.88964,1237.35462C442.12286,1240.08002 456.89354,1245.27392 471.24448,1251.06432C478.99278,1254.19072 486.43906,1258.08922 493.62352,1262.35462C499.52234,1265.85682 505.78551,1269.12122 510.559,1274.04822C514.78762,1278.41272 519.94113,1283.63372 520.43804,1289.37072C520.93494,1295.10772 516.50638,1299.56792 511.76868,1305.09662C507.03097,1310.62522 498.51599,1315.66542 491.00254,1319.81432C483.4891,1323.96322 467.21222,1329.69332 467.21222,1329.69332C467.21222,1329.69332 445.05388,1336.32792 435.76061,1338.56432C426.46734,1340.80072 423.91938,1341.67572 411.56706,1343.40302C399.21474,1345.13032 380.66033,1346.54712 361.56706,1347.43532C336.30693,1348.76802 348.68702,1346.86492 285.76061,1349.04822C222.8342,1351.23152 -4.96138,1362.63702 -15.85231,1361.95142C-26.74321,1361.26582 -41.16849,1360.41482 -56.77972,1357.91912C-72.39096,1355.42352 -129.50954,1340.85482 -151.5378,1335.13692C-173.56605,1329.41902 -171.8617,1329.77952 -190.04586,1324.24982C-208.23001,1318.72012 -253.22287,1301.87812 -258.39263,1299.65302C-263.56239,1297.42792 -269.54225,1294.94202 -269.68295,1289.57242C-269.82365,1284.20272 -264.70641,1282.95412 -256.77973,1280.09662C-248.85306,1277.23902 -131.17488,1261.95142 -131.17488,1261.95142z" id="imagebot_135"/>
   <path fill="url(#imagebot_134)" d="M181.72833,1243.40295C181.72833,1243.40295 198.60393,1221.58405 209.95414,1201.46745C221.30435,1181.35095 235.22251,1148.38145 247.05091,1121.62875C258.87931,1094.87605 272.67162,1063.53755 280.92188,1040.98365C289.17214,1018.42965 297.85736,986.95134 297.85736,986.95134L289.38962,943.40295L329.30899,988.56424C329.30899,988.56424 324.475,1033.59145 322.05092,1054.69325C319.62684,1075.79515 317.51265,1096.35895 314.79286,1115.17715C312.07307,1133.99535 309.17143,1151.06295 305.92189,1167.59655C302.67235,1184.13005 298.28963,1202.14575 295.43802,1214.37065C292.58641,1226.59555 288.98641,1240.98365 288.98641,1240.98365L181.72833,1243.40295z" id="imagebot_133"/>
   <path fill="url(#imagebot_132)" d="M205.11543,1241.79004C230.3029,1207.42474 247.5358,1170.44664 263.9864,1131.30614C277.38204,1096.33164 294.56888,1044.55414 302.69608,999.85455L319.63157,992.59648C312.98091,1046.86043 309.64455,1092.31523 298.38708,1139.06043C286.99977,1186.34473 275.4332,1213.60182 267.21221,1243.40293L205.11543,1241.79003z" id="imagebot_131"/>
   <path fill="url(#imagebot_130)" d="M-247.30392,1298.2417L-394.07811,1372.4353L-378.75553,1373.2417L-324.72327,1353.8869L-274.72327,1334.532L-215.8523,1308.7256C-215.8523,1308.7256 -209.42161,1306.4742 -213.43295,1300.6611C-217.44429,1294.848 -247.30392,1298.2417 -247.30392,1298.2417z" id="imagebot_129"/>
   <path fill="url(#imagebot_128)" d="M-161.82004,1256.30615C-161.82004,1256.30615 -157.09741,1236.95975 -155.36843,1228.08035C-153.63945,1219.20095 -151.3187,1209.75355 -151.33617,1203.08035C-151.35367,1196.40715 -149.39412,1192.41125 -153.75553,1188.56425C-158.11694,1184.71725 -173.91682,1187.75775 -173.91682,1187.75775L-202.94908,1241.79005L-161.82004,1256.30615z" id="imagebot_127"/>
   <path fill="#000000" filter="url(#imagebot_126)" id="imagebot_125" d="M-138.43295,1264.77405L-154.56198,1253.88695L-336.0136,1123.24174L-365.04586,1126.46755L-244.07812,1278.48375L-138.43296,1264.77405z"/>
   <path fill="url(#imagebot_124)" d="M-159.4007,1199.85461L-166.65876,1199.85461L-184.4007,1242.59661L-173.91683,1245.01591L-159.4007,1199.85461z" id="imagebot_123"/>
   <path fill="url(#imagebot_122)" d="M-116.659,1266.79 L-155.368,1253.89 L-336.82,1123.24 L-365.852,1126.47 L-245.691,1280.5 L-116.659,1266.79 L-116.659,1266.79 z" id="imagebot_121"/>
   <g fill="url(#imagebot_110)" stroke="url(#imagebot_111)" id="imagebot_109" transform="translate(-4.5619792,825.71824)">
    <path fill="url(#imagebot_119)" stroke="url(#imagebot_120)" stroke-width="1px" id="imagebot_118" d="M498.38708,437.44284L489.11288,432.2009L485.88708,439.05574L470.96772,446.71703L457.25804,451.55574C457.25804,451.55574 452.61034,459.35672 454.33466,461.83799C456.05898,464.31927 459.31158,463.35015 463.70966,462.84606C468.10774,462.34197 478.2258,456.39445 478.2258,456.39445L495.16128,447.92671L498.38709,437.44284z"/>
    <path fill="url(#imagebot_116)" stroke="url(#imagebot_117)" stroke-width="1px" id="imagebot_115" d="M469.25403,447.22104L478.52823,456.59604"/>
    <path fill="url(#imagebot_113)" stroke="url(#imagebot_114)" stroke-width="1px" id="imagebot_112" d="M485.58469,439.45895L495.56453,447.62427"/>
   </g>
   <path fill="url(#imagebot_108)" d="M-237.79317,1299.2793L-224.10723,1301.5603L-356.97487,1359.7255L-237.79316,1299.27929z" id="imagebot_107"/>
   <path fill="#000000" filter="url(#imagebot_106)" d="M151.799,1397.34 C147.327,1397.32 142.651,1397.69 135.831,1398.56 C134.295,1398.56 132.783,1398.78 131.331,1399.21 C126.058,1400.09 119.639,1401.51 113.549,1403.09 L79.4556,1402.56 L79.2056,1403.06 L79.1744,1402.96 L42.3931,1420.93 L70.3306,1425.49 L77.1744,1421.81 L83.6119,1418.62 L83.7369,1418.81 L86.3619,1417.12 C84.9763,1419.19 83.9206,1421.47 83.0181,1424.06 C82.5398,1425.43 82.1778,1426.84 81.8931,1428.24 L71.5494,1432.18 L81.0806,1438.56 C81.1145,1440.06 81.1906,1441.56 81.2994,1442.99 C82.2605,1450.95 83.766,1455.5 91.7994,1461.53 C99.8328,1467.55 116.835,1469.05 129.706,1470.4 C142.576,1471.75 158.82,1471.31 168.393,1469.59 C177.966,1467.87 179.991,1469.02 186.956,1463.15 C193.92,1457.28 198.971,1443.85 198.487,1432.21 C198.003,1420.57 192.732,1409.13 184.549,1403.46 C176.366,1397.79 168.6,1398.65 160.331,1397.84 C157.23,1397.53 154.551,1397.35 151.799,1397.34 L151.799,1397.34 z" id="imagebot_105"/>
   <path fill="url(#imagebot_104)" d="M-359.4007,1553.88684L-417.12296,1548.05904L-343.27167,1559.53194L-207.7878,1517.59654L-91.65876,1473.24164L1.08318,1436.95134L76.88963,1402.27395L124.47027,1384.53195L170.43801,1367.59655L220.43801,1353.08035L243.82511,1347.43525C243.82511,1347.43525 230.01773,1338.13075 217.2122,1334.53194C204.40667,1330.93314 187.89444,1328.64874 167.2122,1329.69324C146.52996,1330.73774 109.10825,1337.67085 94.63156,1344.20944C80.15487,1350.74804 77.69608,1357.11265 77.69608,1357.11265L-94.07813,1442.59655L-158.59425,1474.04815L-218.27168,1499.85455L-294.07813,1529.69325L-359.4007,1553.88685z" id="imagebot_103"/>
   <g id="imagebot_89">
    <path fill="#000000" id="imagebot_102" d="M82.95667,1425.56885L68.72915,1430.99455L85.10523,1441.93895L82.95667,1425.56885z"/>
    <path fill="url(#imagebot_101)" id="imagebot_100" d="M78.50254,1441.79004C79.46364,1449.75124 80.95299,1454.31804 88.98641,1460.33844C97.01983,1466.35884 114.01935,1467.85914 126.88963,1469.20944C139.75991,1470.55974 156.02654,1470.12294 165.59931,1468.40294C175.17208,1466.68294 177.18301,1467.82164 184.1477,1461.95134C191.11239,1456.08104 196.15004,1442.66194 195.66583,1431.02104C195.18162,1419.38014 189.9114,1407.94484 181.72834,1402.27394C173.54528,1396.60304 165.80393,1397.44584 157.53479,1396.62874C149.26565,1395.81164 143.91453,1395.97694 132.53479,1397.43524C121.15505,1398.89354 99.69167,1404.15234 92.6441,1407.96804C85.59653,1411.78374 82.45248,1416.42864 80.20425,1422.86684C78.03778,1429.07094 78.04933,1435.80514 78.50254,1441.79004z"/>
    <path fill="none" stroke="#6e7a8a" stroke-width="6.5576" stroke-miterlimit="4" transform="matrix(1.0431446,0,0,0.9342594,-26.204818,861.18291)" d="M211.27666,611.52686C211.27666,629.61701 202.21321,644.28197 191.03288,644.28197C179.85255,644.28197 170.7891,629.617 170.7891,611.52686C170.7891,593.4367 179.85255,578.77172 191.03288,578.77172C202.21321,578.77172 211.27666,593.4367 211.27666,611.52686z" id="imagebot_99"/>
    <path fill="none" stroke="#e6e6e6" stroke-width="1.65444" stroke-linecap="round" stroke-linejoin="round" stroke-miterlimit="4" transform="matrix(0.99978325,0,0,1.0685179,-17.074883,782.89954)" d="M150.11763,641.49896C137.28387,641.49897 126.88005,626.62725 126.88005,608.28205C126.88005,589.93686 137.28387,575.06514 150.11763,575.06514C150.11763,575.06514 150.11763,575.06514 150.11763,575.06514" id="imagebot_98"/>
    <path fill="#323639" stroke="#323639" stroke-width="6.5576" stroke-miterlimit="4" id="imagebot_97" d="M211.27666,611.52686C211.27666,629.61701 202.21321,644.28197 191.03288,644.28197C179.85255,644.28197 170.7891,629.617 170.7891,611.52686C170.7891,593.4367 179.85255,578.77172 191.03288,578.77172C202.21321,578.77172 211.27666,593.4367 211.27666,611.52686z" transform="matrix(0.45764369,0,0,0.68167928,76.663714,1015.9121)"/>
    <path fill="none" stroke="#e6e6e6" stroke-width="1.65444" stroke-linecap="round" stroke-linejoin="round" stroke-miterlimit="4" id="imagebot_96" d="M150.11763,641.49896C137.28387,641.49897 126.88005,626.62725 126.88005,608.28205C126.88005,589.93686 137.28387,575.06514 150.11763,575.06514C150.11763,575.06514 150.11763,575.06514 150.11763,575.06514" transform="matrix(0.99978325,0,0,1.0685179,4.8796438,782.89954)"/>
    <path fill="url(#imagebot_95)" transform="matrix(-0.90331164,0,0,0.87718196,345.27596,895.9103)" d="M211.27666,611.52686C211.27666,629.61701 202.21321,644.28197 191.03288,644.28197C179.85255,644.28197 170.7891,629.617 170.7891,611.52686C170.7891,593.4367 179.85255,578.77172 191.03288,578.77172C202.21321,578.77172 211.27666,593.4367 211.27666,611.52686z" id="imagebot_94"/>
    <path fill="#999999" id="imagebot_93" d="M153.9668,1425.87415L163.66101,1431.57665L153.39655,1436.70885L153.9668,1425.87415z"/>
    <path fill="#5e6168" id="imagebot_92" d="M39.58573,1419.74231L76.36669,1401.77951L81.21379,1417.24751L74.37082,1420.59771L67.52785,1424.30431L39.58573,1419.74231z"/>
    <path fill="url(#imagebot_91)" stroke="#cccccc" id="imagebot_90" d="M76.6578,1401.38 L133.397,1402.23 L111.443,1405.37 L93.7652,1409.36 L80.9346,1417.63 L74.0916,1406.22 L76.6577,1401.38 L76.6578,1401.38 z"/>
   </g>
   <path fill="url(#imagebot_88)" d="M98.66383,1348.2417L138.98641,1340.1772L188.17996,1334.532L159.1477,1352.274C159.1477,1352.274 -10.02924,1432.4764 -96.9007,1467.1934C-176.95441,1499.1857 -243.52871,1520.2978 -340.85231,1553.0804L-344.88457,1550.6611C-262.01646,1520.71651 -164.64049,1482.2321 -100.52973,1453.48371C-32.39166,1422.47781 35.56403,1388.66251 98.66383,1348.24171z" id="imagebot_87"/>
   <path fill="url(#imagebot_85)" filter="url(#imagebot_86)" id="imagebot_84" d="M298.66382,986.95142L288.17995,941.79013L330.11543,989.37077L298.66382,986.95142z"/>
   <path fill="url(#imagebot_83)" d="M-359.42542,1553.92468L-343.44761,1559.56978L-416.43148,1548.12838L-359.42542,1553.92468z" id="imagebot_82"/>
   <g fill="#535d6c" id="imagebot_13" transform="translate(0,831.15626)">
    <rect fill="#535d6c" ry="2" rx="2" transform="matrix(0.9831996,-0.18253369,0.18253369,0.9831996,0,0)" y="487.24408" x="-35.31913" height="7.9877" width="4.69021" id="imagebot_81"/>
    <rect fill="#535d6c" id="imagebot_80" width="4.69021" height="7.9877" x="99.35084" y="507.24124" transform="matrix(0.9831996,-0.18253369,0.18253369,0.9831996,0,0)" rx="2" ry="2"/>
    <rect fill="#535d6c" id="imagebot_79" width="4.69021" height="7.9877" x="-29.19777" y="488.15305" transform="matrix(0.9831996,-0.18253369,0.18253369,0.9831996,0,0)" rx="2" ry="2"/>
    <rect fill="#535d6c" ry="2" rx="2" transform="matrix(0.9831996,-0.18253369,0.18253369,0.9831996,0,0)" y="489.06201" x="-23.07641" height="7.9877" width="4.69021" id="imagebot_78"/>
    <rect fill="#535d6c" id="imagebot_77" width="4.69021" height="7.9877" x="-16.95505" y="489.97098" transform="matrix(0.9831996,-0.18253369,0.18253369,0.9831996,0,0)" rx="2" ry="2"/>
    <rect fill="#535d6c" ry="2" rx="2" transform="matrix(0.9831996,-0.18253369,0.18253369,0.9831996,0,0)" y="490.87994" x="-10.83368" height="7.9877" width="4.69021" id="imagebot_76"/>
    <rect fill="#535d6c" id="imagebot_75" width="4.69021" height="7.9877" x="-4.71232" y="491.78891" transform="matrix(0.9831996,-0.18253369,0.18253369,0.9831996,0,0)" rx="2" ry="2"/>
    <rect fill="#535d6c" ry="2" rx="2" transform="matrix(0.9831996,-0.18253369,0.18253369,0.9831996,0,0)" y="492.69785" x="1.40904" height="7.9877" width="4.69021" id="imagebot_74"/>
    <rect fill="#535d6c" id="imagebot_73" width="4.69021" height="7.9877" x="7.5304" y="493.60681" transform="matrix(0.9831996,-0.18253369,0.18253369,0.9831996,0,0)" rx="2" ry="2"/>
    <rect fill="#535d6c" ry="2" rx="2" transform="matrix(0.9831996,-0.18253369,0.18253369,0.9831996,0,0)" y="494.51578" x="13.65177" height="7.9877" width="4.69021" id="imagebot_72"/>
    <rect fill="#535d6c" id="imagebot_71" width="4.69021" height="7.9877" x="19.77313" y="495.42474" transform="matrix(0.9831996,-0.18253369,0.18253369,0.9831996,0,0)" rx="2" ry="2"/>
    <rect fill="#535d6c" ry="2" rx="2" transform="matrix(0.9831996,-0.18253369,0.18253369,0.9831996,0,0)" y="496.33371" x="25.89448" height="7.9877" width="4.69021" id="imagebot_70"/>
    <rect fill="#535d6c" id="imagebot_69" width="4.69021" height="7.9877" x="32.01585" y="497.24268" transform="matrix(0.9831996,-0.18253369,0.18253369,0.9831996,0,0)" rx="2" ry="2"/>
    <rect fill="#535d6c" ry="2" rx="2" transform="matrix(0.9831996,-0.18253369,0.18253369,0.9831996,0,0)" y="498.15161" x="38.13721" height="7.9877" width="4.69021" id="imagebot_68"/>
    <rect fill="#535d6c" id="imagebot_67" width="4.69021" height="7.9877" x="44.25858" y="499.06058" transform="matrix(0.9831996,-0.18253369,0.18253369,0.9831996,0,0)" rx="2" ry="2"/>
    <rect fill="#535d6c" ry="2" rx="2" transform="matrix(0.9831996,-0.18253369,0.18253369,0.9831996,0,0)" y="499.96954" x="50.37994" height="7.9877" width="4.69021" id="imagebot_66"/>
    <rect fill="#535d6c" id="imagebot_65" width="4.69021" height="7.9877" x="56.5013" y="500.87851" transform="matrix(0.9831996,-0.18253369,0.18253369,0.9831996,0,0)" rx="2" ry="2"/>
    <rect fill="#535d6c" ry="2" rx="2" transform="matrix(0.9831996,-0.18253369,0.18253369,0.9831996,0,0)" y="501.78748" x="62.62267" height="7.9877" width="4.69021" id="imagebot_64"/>
    <rect fill="#535d6c" id="imagebot_63" width="4.69021" height="7.9877" x="68.74403" y="502.69644" transform="matrix(0.9831996,-0.18253369,0.18253369,0.9831996,0,0)" rx="2" ry="2"/>
    <rect fill="#535d6c" ry="2" rx="2" transform="matrix(0.9831996,-0.18253369,0.18253369,0.9831996,0,0)" y="503.60538" x="74.86539" height="7.9877" width="4.69021" id="imagebot_62"/>
    <rect fill="#535d6c" id="imagebot_61" width="4.69021" height="7.9877" x="80.98675" y="504.51434" transform="matrix(0.9831996,-0.18253369,0.18253369,0.9831996,0,0)" rx="2" ry="2"/>
    <rect fill="#535d6c" ry="2" rx="2" transform="matrix(0.9831996,-0.18253369,0.18253369,0.9831996,0,0)" y="505.42331" x="87.10811" height="7.9877" width="4.69021" id="imagebot_60"/>
    <rect fill="#535d6c" id="imagebot_59" width="4.69021" height="7.9877" x="93.22947" y="506.33228" transform="matrix(0.9831996,-0.18253369,0.18253369,0.9831996,0,0)" rx="2" ry="2"/>
    <rect fill="#535d6c" id="imagebot_58" width="4.69021" height="7.9877" x="-158.07681" y="470.54367" transform="matrix(0.9831996,-0.18253369,0.18253369,0.9831996,0,0)" rx="2" ry="2"/>
    <rect fill="#535d6c" ry="2" rx="2" transform="matrix(0.9831996,-0.18253369,0.18253369,0.9831996,0,0)" y="471.45264" x="-151.95544" height="7.9877" width="4.69021" id="imagebot_57"/>
    <rect fill="#535d6c" id="imagebot_56" width="4.69021" height="7.9877" x="-145.83409" y="472.3616" transform="matrix(0.9831996,-0.18253369,0.18253369,0.9831996,0,0)" rx="2" ry="2"/>
    <rect fill="#535d6c" ry="2" rx="2" transform="matrix(0.9831996,-0.18253369,0.18253369,0.9831996,0,0)" y="473.27057" x="-139.71272" height="7.9877" width="4.69021" id="imagebot_55"/>
    <rect fill="#535d6c" id="imagebot_54" width="4.69021" height="7.9877" x="-133.59137" y="474.17953" transform="matrix(0.9831996,-0.18253369,0.18253369,0.9831996,0,0)" rx="2" ry="2"/>
    <rect fill="#535d6c" ry="2" rx="2" transform="matrix(0.9831996,-0.18253369,0.18253369,0.9831996,0,0)" y="475.0885" x="-127.47" height="7.9877" width="4.69021" id="imagebot_53"/>
    <rect fill="#535d6c" id="imagebot_52" width="4.69021" height="7.9877" x="-121.34863" y="475.99744" transform="matrix(0.9831996,-0.18253369,0.18253369,0.9831996,0,0)" rx="2" ry="2"/>
    <rect fill="#535d6c" ry="2" rx="2" transform="matrix(0.9831996,-0.18253369,0.18253369,0.9831996,0,0)" y="476.9064" x="-115.22728" height="7.9877" width="4.69021" id="imagebot_51"/>
    <rect fill="#535d6c" id="imagebot_50" width="4.69021" height="7.9877" x="-109.10591" y="477.81537" transform="matrix(0.9831996,-0.18253369,0.18253369,0.9831996,0,0)" rx="2" ry="2"/>
    <rect fill="#535d6c" ry="2" rx="2" transform="matrix(0.9831996,-0.18253369,0.18253369,0.9831996,0,0)" y="478.72433" x="-102.98457" height="7.9877" width="4.69021" id="imagebot_49"/>
    <rect fill="#535d6c" id="imagebot_48" width="4.69021" height="7.9877" x="-96.86319" y="479.6333" transform="matrix(0.9831996,-0.18253369,0.18253369,0.9831996,0,0)" rx="2" ry="2"/>
    <rect fill="#535d6c" ry="2" rx="2" transform="matrix(0.9831996,-0.18253369,0.18253369,0.9831996,0,0)" y="480.54227" x="-90.74184" height="7.9877" width="4.69021" id="imagebot_47"/>
    <rect fill="#535d6c" id="imagebot_46" width="4.69021" height="7.9877" x="-84.62047" y="481.4512" transform="matrix(0.9831996,-0.18253369,0.18253369,0.9831996,0,0)" rx="2" ry="2"/>
    <rect fill="#535d6c" ry="2" rx="2" transform="matrix(0.9831996,-0.18253369,0.18253369,0.9831996,0,0)" y="482.36017" x="-78.4991" height="7.9877" width="4.69021" id="imagebot_45"/>
    <rect fill="#535d6c" id="imagebot_44" width="4.69021" height="7.9877" x="-139.89879" y="482.12421" transform="matrix(0.99922849,-0.03927377,0.03927377,0.99922849,0,0)" rx="2" ry="2"/>
    <rect fill="#535d6c" ry="2" rx="2" transform="matrix(0.99922849,-0.03927377,0.03927377,0.99922849,0,0)" y="483.03317" x="-133.77742" height="7.9877" width="4.69021" id="imagebot_43"/>
    <rect fill="#535d6c" id="imagebot_42" width="4.69021" height="7.9877" x="-127.65607" y="483.94214" transform="matrix(0.99922849,-0.03927377,0.03927377,0.99922849,0,0)" rx="2" ry="2"/>
    <rect fill="#535d6c" ry="2" rx="2" transform="matrix(0.99922849,-0.03927377,0.03927377,0.99922849,0,0)" y="484.8511" x="-121.53471" height="7.9877" width="4.69021" id="imagebot_41"/>
    <rect fill="#535d6c" id="imagebot_40" width="4.69021" height="7.9877" x="-115.41335" y="485.76004" transform="matrix(0.99922849,-0.03927377,0.03927377,0.99922849,0,0)" rx="2" ry="2"/>
    <rect fill="#535d6c" ry="2" rx="2" transform="matrix(0.99922849,-0.03927377,0.03927377,0.99922849,0,0)" y="486.66901" x="-109.29199" height="7.9877" width="4.69021" id="imagebot_39"/>
    <rect fill="#535d6c" id="imagebot_38" width="4.69021" height="7.9877" x="-103.17062" y="487.57797" transform="matrix(0.99922849,-0.03927377,0.03927377,0.99922849,0,0)" rx="2" ry="2"/>
    <rect fill="#535d6c" ry="2" rx="2" transform="matrix(0.99922849,-0.03927377,0.03927377,0.99922849,0,0)" y="488.48694" x="-97.04926" height="7.9877" width="4.69021" id="imagebot_37"/>
    <rect fill="#535d6c" ry="2" rx="2" transform="matrix(0.97257212,-0.23260155,0.23260155,0.97257212,0,0)" y="530.9837" x="170.21866" height="7.9877" width="4.69021" id="imagebot_36"/>
    <rect fill="#535d6c" ry="2" rx="2" transform="matrix(0.9831996,-0.18253369,0.18253369,0.9831996,0,0)" y="509.54776" x="114.58972" height="7.9877" width="4.69021" id="imagebot_35"/>
    <rect fill="#535d6c" id="imagebot_34" width="4.69021" height="7.9877" x="120.71108" y="510.45673" transform="matrix(0.9831996,-0.18253369,0.18253369,0.9831996,0,0)" rx="2" ry="2"/>
    <rect fill="#535d6c" ry="2" rx="2" transform="matrix(0.9831996,-0.18253369,0.18253369,0.9831996,0,0)" y="511.36569" x="126.83244" height="7.9877" width="4.69021" id="imagebot_33"/>
    <rect fill="#535d6c" id="imagebot_32" width="4.69021" height="7.9877" x="132.95381" y="512.2746" transform="matrix(0.9831996,-0.18253369,0.18253369,0.9831996,0,0)" rx="2" ry="2"/>
    <rect fill="#535d6c" ry="2" rx="2" transform="matrix(0.9831996,-0.18253369,0.18253369,0.9831996,0,0)" y="513.18359" x="139.07518" height="7.9877" width="4.69021" id="imagebot_31"/>
    <rect fill="#535d6c" id="imagebot_30" width="4.69021" height="7.9877" x="145.19653" y="514.09253" transform="matrix(0.9831996,-0.18253369,0.18253369,0.9831996,0,0)" rx="2" ry="2"/>
    <rect fill="#535d6c" ry="2" rx="2" transform="matrix(0.9831996,-0.18253369,0.18253369,0.9831996,0,0)" y="515.00153" x="151.3179" height="7.9877" width="4.69021" id="imagebot_29"/>
    <rect fill="#535d6c" id="imagebot_28" width="4.69021" height="7.9877" x="157.43927" y="515.91046" transform="matrix(0.9831996,-0.18253369,0.18253369,0.9831996,0,0)" rx="2" ry="2"/>
    <rect fill="#535d6c" ry="2" rx="2" transform="matrix(0.9831996,-0.18253369,0.18253369,0.9831996,0,0)" y="516.81946" x="163.56062" height="7.9877" width="4.69021" id="imagebot_27"/>
    <rect fill="#535d6c" id="imagebot_26" width="4.69021" height="7.9877" x="282.72446" y="531.71521" transform="matrix(0.9831996,-0.18253369,0.18253369,0.9831996,0,0)" rx="2" ry="2"/>
    <rect fill="#535d6c" id="imagebot_25" width="4.69021" height="7.9877" x="176.39308" y="532.13" transform="matrix(0.97257212,-0.23260155,0.23260155,0.97257212,0,0)" rx="2" ry="2"/>
    <rect fill="#535d6c" ry="2" rx="2" transform="matrix(0.97257212,-0.23260155,0.23260155,0.97257212,0,0)" y="533.25885" x="182.47362" height="7.9877" width="4.69021" id="imagebot_24"/>
    <rect fill="#535d6c" id="imagebot_23" width="4.69021" height="7.9877" x="188.55415" y="534.38776" transform="matrix(0.97257212,-0.23260155,0.23260155,0.97257212,0,0)" rx="2" ry="2"/>
    <rect fill="#535d6c" ry="2" rx="2" transform="matrix(0.97257212,-0.23260155,0.23260155,0.97257212,0,0)" y="535.5166" x="194.63467" height="7.9877" width="4.69021" id="imagebot_22"/>
    <rect fill="#535d6c" id="imagebot_21" width="4.69021" height="7.9877" x="200.71523" y="536.64551" transform="matrix(0.97257212,-0.23260155,0.23260155,0.97257212,0,0)" rx="2" ry="2"/>
    <rect fill="#535d6c" ry="2" rx="2" transform="matrix(0.97257212,-0.23260155,0.23260155,0.97257212,0,0)" y="537.77435" x="206.79575" height="7.9877" width="4.69021" id="imagebot_20"/>
    <rect fill="#535d6c" id="imagebot_19" width="4.69021" height="7.9877" x="212.8763" y="538.9032" transform="matrix(0.97257212,-0.23260155,0.23260155,0.97257212,0,0)" rx="2" ry="2"/>
    <rect fill="#535d6c" ry="2" rx="2" transform="matrix(0.97257212,-0.23260155,0.23260155,0.97257212,0,0)" y="540.0321" x="218.95683" height="7.9877" width="4.69021" id="imagebot_18"/>
    <rect fill="#535d6c" id="imagebot_17" width="4.69021" height="7.9877" x="225.03737" y="541.16095" transform="matrix(0.97257212,-0.23260155,0.23260155,0.97257212,0,0)" rx="2" ry="2"/>
    <rect fill="#535d6c" ry="2" rx="2" transform="matrix(0.97257212,-0.23260155,0.23260155,0.97257212,0,0)" y="541.86694" x="231.12823" height="7.9877" width="4.69021" id="imagebot_16"/>
    <rect fill="#535d6c" id="imagebot_15" width="4.69021" height="7.9877" x="238.97205" y="542.97772" transform="matrix(0.97257212,-0.23260155,0.23260155,0.97257212,0,0)" rx="2" ry="2"/>
    <rect fill="#535d6c" ry="2" rx="2" transform="matrix(0.97257212,-0.23260155,0.23260155,0.97257212,0,0)" y="544.26642" x="246.33363" height="7.9877" width="4.69021" id="imagebot_14"/>
   </g>
   <path fill="none" stroke="#808080" stroke-width="0.2" stroke-miterlimit="4" id="imagebot_12" d="M25.45706,1311.11609L41.13887,1310.83099C41.13887,1310.83099 40.79654,1319.43129 41.99424,1323.66159C43.19193,1327.89189 48.26696,1335.35159 48.26696,1335.35159L30.87441,1335.63679C30.87441,1335.63679 28.01965,1329.24279 26.88268,1325.08719C25.74571,1320.93159 25.45706,1311.11609 25.45706,1311.11609z"/>
   <path fill="none" stroke="#808080" stroke-width="0.2" stroke-miterlimit="4" d="M-145.98334,1308.68835L-131.44203,1308.40325C-131.44203,1308.40325 -130.64386,1317.00355 -129.44617,1321.23385C-128.24847,1325.46415 -123.17345,1332.92385 -123.17345,1332.92385L-137.99988,1332.92395C-137.99988,1332.92395 -142.28026,1326.52995 -143.41723,1322.37435C-144.55421,1318.21875 -145.98334,1308.68835 -145.98334,1308.68835z" id="imagebot_11"/>
   <path fill="none" stroke="#808080" stroke-width="0.2" stroke-miterlimit="4" id="imagebot_10" d="M-65.86358,1338.9115L-33.07435,1338.9115C-33.07435,1338.9115 -26.33723,1348.8903 -21.95453,1352.8826C-17.57183,1356.8749 -7.1281,1362.5768 -7.1281,1362.5768L-32.21898,1361.1512L-52.74789,1358.8702C-52.74789,1358.8702 -58.26725,1352.237 -60.44623,1348.8909C-62.62521,1345.5447 -65.86358,1338.9115 -65.86358,1338.9115z"/>
   <path fill="none" stroke="#808080" stroke-width="0.2" stroke-miterlimit="4" id="imagebot_9" d="M386.91287,1277.32483L406.58642,1274.75873C406.58642,1274.75873 405.84615,1288.27473 407.15666,1295.57273C408.46717,1302.87083 415.71037,1316.67193 415.71037,1316.67193L395.46659,1320.94873C395.46659,1320.94873 390.38846,1310.28243 388.62362,1302.98603C386.85878,1295.68953 386.91287,1277.32483 386.91287,1277.32483z"/>
   <path fill="none" stroke="#808080" stroke-width="0.2" stroke-miterlimit="4" id="imagebot_8" d="M263.97562,1300.13464L280.37023,1299.27924C280.37023,1299.27924 280.90192,1307.14654 282.00968,1311.75344C283.11744,1316.36044 288.21114,1326.22354 288.21114,1326.22354L269.96322,1327.50654C269.96322,1327.50654 266.68032,1318.40254 265.68636,1313.82064C264.6924,1309.23864 263.97562,1300.13464 263.97562,1300.13464z"/>
   <path fill="#535d6c" id="imagebot_7" d="M-131.72716,1321.23389C-131.72716,1322.17869 -132.49309,1322.94459 -133.43791,1322.94459C-134.38272,1322.94459 -135.14865,1322.17869 -135.14865,1321.23389C-135.14865,1320.28909 -134.38272,1319.52309 -133.43791,1319.52309C-132.49309,1319.52309 -131.72716,1320.28909 -131.72716,1321.23389z"/>
   <path fill="#535d6c" d="M38.2728,1323.23 C38.2728,1324.18 37.5069,1324.94 36.5621,1324.94 C35.6173,1324.94 34.8513,1324.18 34.8513,1323.23 C34.8513,1322.29 35.6173,1321.52 36.5621,1321.52 C37.5069,1321.52 38.2728,1322.29 38.2728,1323.23 z" id="imagebot_6"/>
   <path fill="#535d6c" id="imagebot_5" d="M278.273,1313.23 C278.273,1314.18 277.507,1314.94 276.562,1314.94 C275.617,1314.94 274.851,1314.18 274.851,1313.23 C274.851,1312.29 275.617,1311.52 276.562,1311.52 C277.507,1311.52 278.273,1312.29 278.273,1313.23 z"/>
   <path fill="#535d6c" d="M404.273,1297.23 C404.273,1298.18 403.507,1298.94 402.562,1298.94 C401.617,1298.94 400.851,1298.18 400.851,1297.23 C400.851,1296.29 401.617,1295.52 402.562,1295.52 C403.507,1295.52 404.273,1296.29 404.273,1297.23 z" id="imagebot_4"/>
  </g>
  <title>Layer 1</title>
 </g>
</svg>